<?xml version="1.0" standalone="no"?>
<!DOCTYPE svg PUBLIC "-//W3C//DTD SVG 20010904//EN"
 "http://www.w3.org/TR/2001/REC-SVG-20010904/DTD/svg10.dtd">
<svg version="1.0" xmlns="http://www.w3.org/2000/svg"
 width="210.000000pt" height="210.000000pt" viewBox="0 0 210.000000 210.000000"
 preserveAspectRatio="xMidYMid meet">
<metadata>
Created by potrace 1.11, written by Peter Selinger 2001-2013
</metadata>
<g transform="translate(0.000000,210.000000) scale(0.100000,-0.100000)"
fill="#000000" stroke="none">
<path d="M600 1683 c-28 -10 -59 -46 -70 -79 -34 -101 102 -184 179 -110 89
85 4 230 -109 189z"/>
<path d="M1330 1644 c-89 -32 -113 -55 -87 -82 12 -11 20 -11 52 2 48 21 114
20 166 0 36 -15 42 -15 56 -1 20 19 11 32 -38 58 -41 20 -122 33 -149 23z"/>
<path d="M835 1210 c-129 -46 -177 -57 -303 -69 -51 -5 -98 -13 -105 -20 -8
-8 -4 -38 16 -115 35 -133 36 -244 5 -374 -16 -69 -19 -98 -12 -110 37 -59
313 -144 545 -168 69 -7 251 19 397 57 99 25 216 81 236 111 13 21 13 29 -6
93 -31 106 -29 280 5 400 21 75 23 92 12 104 -7 8 -50 17 -101 22 -129 12
-146 16 -290 65 -177 59 -241 60 -399 4z m384 -35 c99 -38 187 -58 309 -70 39
-4 72 -10 72 -14 0 -3 -10 -35 -21 -71 -32 -100 -37 -273 -11 -375 11 -44 22
-86 24 -94 2 -9 -16 -25 -47 -42 -85 -47 -220 -83 -427 -114 -93 -14 -103 -14
-240 9 -200 35 -334 75 -406 124 -10 7 -8 25 10 88 32 113 30 286 -4 400 l-24
82 103 11 c115 13 197 34 323 80 115 43 202 40 339 -14z"/>
<path d="M783 985 c-86 -15 -173 -43 -173 -55 0 -18 18 -19 66 -4 187 57 532
57 694 -1 44 -16 70 -14 70 4 0 13 -114 47 -200 61 -90 14 -370 11 -457 -5z"/>
<path d="M615 790 c-4 -7 -2 -16 6 -20 51 -32 758 -32 810 0 9 6 10 13 4 19
-7 7 -48 6 -120 -1 -111 -10 -615 -5 -666 8 -16 3 -30 1 -34 -6z"/>
<path d="M614 629 c-11 -18 8 -28 88 -48 189 -49 452 -48 643 0 86 22 105 33
89 49 -7 7 -25 5 -55 -5 -177 -59 -541 -59 -708 0 -52 18 -48 18 -57 4z"/>
</g>
</svg>
